<svg width="151" height="44" viewBox="0 0 151 44" fill="none" xmlns="http://www.w3.org/2000/svg">
<g clip-path="url(#clip0_198_209)">
<path d="M56.5662 18.5467C56.5662 13.9462 55.2545 11.5844 52.6307 11.4552C51.5866 11.4059 50.5678 11.5721 49.5761 11.9572C48.7847 12.2403 48.2521 12.5208 47.9718 12.8042V23.785C49.65 24.8383 51.1402 25.328 52.4399 25.2509C55.1894 25.0686 56.5662 22.8363 56.5662 18.5467ZM59.8025 18.7375C59.8025 21.0747 59.2544 23.0148 58.1518 24.5574C56.9232 26.3035 55.2204 27.2026 53.0433 27.2519C51.4021 27.304 49.7113 26.79 47.9715 25.7121V35.6924L45.157 34.6884V12.536C45.6189 11.9695 46.2134 11.483 46.9337 11.0701C48.6091 10.0939 50.6442 9.59221 53.0402 9.56757L53.08 9.60737C55.2696 9.57989 56.9567 10.479 58.1423 12.3019C59.248 13.974 59.8025 16.1173 59.8025 18.7375V18.7375ZM77.0035 25.2875C77.0035 28.4224 76.6895 30.5931 76.0614 31.8002C75.4302 33.0071 74.2291 33.9709 72.4555 34.6887C71.0174 35.2552 69.4621 35.5632 67.7934 35.6156L67.3281 33.8421C69.0249 33.6114 70.2197 33.3802 70.9125 33.1492C72.2767 32.6874 73.2127 31.9794 73.7271 31.0307C74.1397 30.2579 74.3428 28.7829 74.3428 26.5999V25.8669C72.4182 26.7417 70.4013 27.1758 68.2923 27.1758C66.9063 27.1758 65.684 26.7417 64.6307 25.8669C63.4482 24.9154 62.8571 23.7085 62.8571 22.2458V10.5314L65.6717 9.56757V21.3581C65.6717 22.6174 66.078 23.5875 66.8908 24.268C67.7037 24.9485 68.757 25.2752 70.0472 25.2502C71.3374 25.2224 72.7199 24.7236 74.1886 23.7474V9.99217H77.0032V25.2875H77.0035ZM87.9903 27.0981C87.682 27.1241 87.3728 27.1374 87.0634 27.1379C85.4715 27.1379 84.2302 26.7594 83.3437 25.9987C82.4598 25.2382 82.0165 24.1884 82.0165 22.8486V11.7629H80.0888V9.99248H82.0165V5.2903L84.8279 4.28946V9.99248H87.9903V11.7629H84.8279V22.7715C84.8279 23.828 85.111 24.5761 85.6774 25.0136C86.1639 25.3738 86.937 25.5801 87.99 25.6325V27.0981H87.9903ZM105.031 26.8671H102.217V16.0032C102.217 14.8978 101.958 13.9462 101.444 13.152C100.85 12.2526 100.025 11.803 98.9651 11.803C97.6749 11.803 96.0615 12.4835 94.1245 13.8445V26.8671H91.3103V0.899305L94.1245 0.0125122V11.84C95.9228 10.5311 97.8875 9.87527 100.022 9.87527C101.512 9.87527 102.719 10.3773 103.643 11.3781C104.57 12.3786 105.032 13.6259 105.032 15.1164V26.8671H105.031V26.8671ZM119.991 18.1035C119.991 16.3359 119.655 14.8763 118.987 13.7216C118.192 12.3145 116.957 11.5721 115.288 11.4953C112.203 11.6738 110.663 13.8846 110.663 18.1221C110.663 20.065 110.983 21.6879 111.63 22.9905C112.455 24.6503 113.693 25.4695 115.344 25.4417C118.442 25.4167 119.991 22.9718 119.991 18.1035V18.1035ZM123.073 18.1218C123.073 20.6378 122.43 22.7317 121.145 24.4036C119.732 26.276 117.78 27.215 115.288 27.215C112.819 27.215 110.894 26.2757 109.506 24.4036C108.246 22.7317 107.618 20.6378 107.618 18.1218C107.618 15.7571 108.298 13.7677 109.659 12.148C111.097 10.4297 112.988 9.56757 115.325 9.56757C117.662 9.56757 119.565 10.4297 121.031 12.148C122.393 13.7677 123.073 15.7571 123.073 18.1218V18.1218ZM139.208 26.8671H136.394V15.3875C136.394 14.1282 136.015 13.1457 135.258 12.4374C134.5 11.7323 133.49 11.3904 132.231 11.4179C130.895 11.4426 129.622 11.8798 128.416 12.7268V26.8671H125.601V12.379C127.221 11.1999 128.711 10.4297 130.072 10.0696C131.356 9.73406 132.489 9.56757 133.466 9.56757C134.134 9.56757 134.762 9.63201 135.353 9.76154C136.459 10.0171 137.358 10.4913 138.051 11.1873C138.824 11.9572 139.208 12.8806 139.208 13.9617V26.8671V26.8671Z" fill="#646464"/>
<path d="M17.359 1.00324C15.9108 1.00987 14.528 1.1334 13.3114 1.34886C9.72698 1.98228 9.07618 3.30757 9.07618 5.75218V8.98058H17.5467V10.0566H5.89706C3.43539 10.0566 1.27954 11.5364 0.605366 14.3513C-0.172433 17.5778 -0.206869 19.5911 0.605366 22.9601C1.20751 25.4679 2.64559 27.2548 5.10725 27.2548H8.01973V23.3847C8.01973 20.5888 10.4387 18.1227 13.3114 18.1227H21.7721C24.1273 18.1227 26.0074 16.1836 26.0074 13.8183V5.75186C26.0074 3.45637 24.0708 1.73175 21.7721 1.34854C20.3167 1.10655 18.8072 0.996288 17.359 1.00324V1.00324ZM12.7781 3.59948C13.6533 3.59948 14.3676 4.32579 14.3676 5.21858C14.3676 6.10822 13.6529 6.82789 12.7781 6.82789C11.9002 6.82789 11.1887 6.10854 11.1887 5.21858C11.1887 4.32579 11.9002 3.59948 12.7781 3.59948Z" fill="url(#paint0_linear_198_209)"/>
<path d="M27.0638 10.0563V13.8176C27.0638 16.7339 24.5914 19.1883 21.7721 19.1883H13.3114C10.9938 19.1883 9.07617 21.1717 9.07617 23.4927V31.5585C9.07617 33.8543 11.0722 35.2046 13.3114 35.863C15.9926 36.6515 18.5639 36.794 21.7721 35.863C23.9046 35.2457 26.0074 34.0028 26.0074 31.5585V28.3305H17.5467V27.2544H30.2426C32.7046 27.2544 33.6217 25.5371 34.4779 22.9598C35.3624 20.3067 35.3249 17.7547 34.4779 14.3509C33.8694 11.9003 32.7074 10.0563 30.2426 10.0563H27.0638V10.0563ZM22.3051 30.4825C23.183 30.4825 23.8945 31.2019 23.8945 32.0918C23.8945 32.9846 23.183 33.7109 22.3051 33.7109C21.43 33.7109 20.7157 32.9846 20.7157 32.0918C20.7157 31.2022 21.4303 30.4825 22.3051 30.4825Z" fill="url(#paint1_linear_198_209)"/>
<path d="M144.689 7.48312H145.183V4.38835H146.352V4.01935H143.52V4.38835H144.689V7.48312M146.789 7.48312H147.211V4.65656L148.126 7.4828H148.595L149.549 4.66604V7.48312H150.009V4.01966H149.4L148.358 6.98712L147.47 4.01966H146.789V7.48312" fill="#646464"/>
<path opacity="0.444" d="M28.9941 41.3465C28.9941 42.5622 23.9119 43.5475 17.6424 43.5475C11.3732 43.5475 6.29102 42.5622 6.29102 41.3465C6.29102 40.1308 11.3732 39.1451 17.6424 39.1451C23.9119 39.1451 28.9941 40.1308 28.9941 41.3465Z" fill="url(#paint2_radial_198_209)"/>
</g>
<defs>
<linearGradient id="paint0_linear_198_209" x1="-0.826392" y1="2.01134" x2="18.7065" y2="18.654" gradientUnits="userSpaceOnUse">
<stop stop-color="#5A9FD4"/>
<stop offset="1" stop-color="#306998"/>
</linearGradient>
<linearGradient id="paint1_linear_198_209" x1="26.0358" y1="29.0289" x2="19.0278" y2="19.2096" gradientUnits="userSpaceOnUse">
<stop stop-color="#FFD43B"/>
<stop offset="1" stop-color="#FFE873"/>
</linearGradient>
<radialGradient id="paint2_radial_198_209" cx="0" cy="0" r="1" gradientUnits="userSpaceOnUse" gradientTransform="translate(17.6388 41.2959) rotate(-90) scale(2.2007 9.67521)">
<stop stop-color="#B8B8B8" stop-opacity="0.498"/>
<stop offset="1" stop-color="#7F7F7F" stop-opacity="0"/>
</radialGradient>
<clipPath id="clip0_198_209">
<rect width="150" height="43.56" fill="white" transform="translate(0.00891113)"/>
</clipPath>
</defs>
</svg>
